<svg viewBox="0 0 70 67" fill="none" xmlns="http://www.w3.org/2000/svg">
<path d="M18.71 66.184h-4.244c-2.144 0-3.815-1.627-3.815-3.712v-5.56c0-.606.503-1.109 1.11-1.109.605 0 1.108.503 1.108 1.11v5.56c0 .827.71 1.493 1.597 1.493h4.244c.976 0 1.331-.77 1.331-1.494v-.754c0-.606.503-1.109 1.109-1.109s1.11.503 1.11 1.11v.753c-.016 2.16-1.494 3.712-3.55 3.712ZM55.915 66.184h-4.244c-2.114 0-3.712-1.597-3.712-3.712v-.754c0-.606.503-1.109 1.11-1.109.606 0 1.109.503 1.109 1.11v.753c0 .873.606 1.494 1.493 1.494h4.244c.976 0 1.33-.77 1.33-1.494V57.15c0-.606.504-1.11 1.11-1.11.606 0 1.109.504 1.109 1.11v5.323c0 2.16-1.494 3.712-3.549 3.712Z" fill="#474747"/>
<path d="M51.139 62.073H19.317c-1.316 0-2.75-.429-4.274-1.257-.014 0-.03-.015-.044-.015l-1.006-.606c-3.15-1.745-5.116-5.013-5.116-8.532v-2.825c0-1.67.606-3.312 1.775-4.746l.014-.015 1.716-2.026H9.469a3.237 3.237 0 0 1-3.239-3.238v-1.095a2.966 2.966 0 0 1 2.958-2.957h3.682c1.153 0 2.144.754 2.425 1.848l.074.296c0 .015 0 .015.014.03 0 0 0 .014.015.03h.015l.178-.356s0-.014.014-.014c2.544-4.762 7.453-7.72 12.791-7.72H42.09c5.338 0 10.248 2.958 12.791 7.72 0 0 0 .014.015.014l.177.355h.104l.074-.34v-.03c.266-1.094 1.242-1.818 2.425-1.818h3.682a2.622 2.622 0 0 1 2.617 2.617v1.804a2.84 2.84 0 0 1-2.839 2.84H58.03l1.641 1.98c1.08 1.332 1.642 2.988 1.642 4.807v2.824c0 3.593-1.908 6.876-4.969 8.562l-.902.562c-.015.014-.03.014-.06.03-1.552.857-2.942 1.271-4.243 1.271Zm-35.016-3.209c1.198.65 2.262.976 3.194.976h31.837c.916 0 1.937-.325 3.15-.976l.901-.562c.015-.014.03-.014.06-.03 2.38-1.3 3.844-3.844 3.844-6.639V48.81c0-1.301-.399-2.47-1.138-3.401l-2.485-2.958c-.059-.074-.103-.148-.147-.221l-.4-.814a1.123 1.123 0 0 1 .06-1.08c.206-.325.561-.517.946-.517h5.19c.34 0 .621-.28.621-.62v-1.85c0-.221-.177-.398-.4-.398h-3.681c-.074 0-.237.014-.266.133l-.074.37v.029c-.237.961-1.11 1.67-2.07 1.67h-.858c-.414 0-.799-.236-.99-.605l-.489-.947c-2.159-4.037-6.314-6.55-10.839-6.55H28.396c-4.51 0-8.665 2.513-10.824 6.55l-.488.947c-.192.37-.577.606-.99.606h-.784c-.947 0-1.82-.71-2.07-1.686l-.075-.296c0-.014 0-.014-.014-.03-.03-.132-.163-.177-.281-.177H9.188c-.4 0-.74.34-.74.74v1.094c0 .562.459 1.02 1.02 1.02h5.028c.385 0 .74.207.947.533.207.325.222.739.044 1.08l-.414.812a1.947 1.947 0 0 1-.148.222l-2.573 3.031c-.828 1.036-1.272 2.189-1.272 3.342v2.825c0 2.72 1.524 5.25 3.978 6.595.015 0 .03.015.044.015l1.02.591ZM55.146 36.95s0 .014 0 0Z" fill="#474747"/>
<path d="M44.307 57.341a1.117 1.117 0 0 1-1.109-1.109c0-.606.503-1.109 1.11-1.109.473 0 2.158-.414 3.46-.798.014 0 .03-.015.059-.015.088-.03.148-.06.192-.074a.323.323 0 0 0-.074-.045c-1.227-.295-4.421-.976-5.87-.976H28.47c-1.73 0-5.264.814-5.87.962-.074.03-.089.074-.089.074 0 .03.06.088.207.133.015 0 .015 0 .03.014 1.123.311 2.957.74 3.49.74.606 0 1.108.503 1.108 1.109s-.502 1.109-1.109 1.109c-1.005 0-3.519-.666-4.051-.813-1.08-.267-1.82-1.11-1.893-2.13-.074-1.02.547-1.922 1.553-2.321l.133-.045c.177-.044 4.332-1.035 6.477-1.035H42.06c2.04 0 6.299 1.02 6.476 1.065l.134.044c1.02.385 1.626 1.287 1.552 2.277-.059 1.006-.798 1.82-1.878 2.085-.532.134-3.031.858-4.037.858Zm-28.021-5.205c-.222 0-.444-.03-.651-.089l-3.165-.902a4.693 4.693 0 0 1-2.942-2.484 1.1 1.1 0 0 1 .517-1.479 1.1 1.1 0 0 1 1.48.518c.31.65.872 1.109 1.567 1.316l3.15.902c.073.015.162 0 .206-.074l.503-.68c.044-.06.044-.104.03-.148 0-.03-.03-.089-.074-.133l-5.057-3.579a1.114 1.114 0 1 1 1.286-1.819l5.057 3.579c.532.385.887.946.99 1.582.104.65-.058 1.287-.443 1.82l-.502.68a2.43 2.43 0 0 1-1.952.99Zm37.633-.104a2.41 2.41 0 0 1-1.937-.975l-.503-.68a2.421 2.421 0 0 1-.444-1.82c.104-.65.459-1.212.991-1.582l5.057-3.578a1.114 1.114 0 1 1 1.287 1.819l-5.057 3.578c-.06.045-.074.089-.074.133 0 .03 0 .089.03.148l.502.68c.044.06.133.089.207.074l3.15-.902c.695-.192 1.242-.665 1.567-1.316a1.112 1.112 0 0 1 1.479-.517c.547.266.784.931.517 1.478a4.73 4.73 0 0 1-2.942 2.485l-3.15.902a3.823 3.823 0 0 1-.68.073ZM35.213 42.54c-9.641 0-14.255-1.479-15.438-1.922a1.105 1.105 0 0 1-.576-.459 1.094 1.094 0 0 1-.119-.931 10.279 10.279 0 0 1 3.505-5.043c.488-.37 1.183-.295 1.553.193.37.488.295 1.183-.193 1.552a7.987 7.987 0 0 0-2.35 2.943c1.877.532 6.18 1.45 13.618 1.45 1.538 0 9.006-.075 13.649-1.45-.547-1.227-1.405-2.277-2.544-3.105a1.11 1.11 0 0 1-.251-1.553 1.11 1.11 0 0 1 1.553-.251c1.848 1.33 3.135 3.164 3.74 5.293.09.31.045.636-.132.902-.133.207-.34.37-.577.444h-.015c-1.198.458-5.84 1.937-15.423 1.937Zm15.246-1.878s-.015 0 0 0c-.015 0 0 0 0 0Z" fill="#474747"/>
<path d="M5.979 55.833c-.385 0-.754-.207-.961-.562A34.612 34.612 0 0 1 .493 38.162c0-7.882 2.72-15.6 7.66-21.722A34.778 34.778 0 0 1 27.36 4.418a1.116 1.116 0 0 1 1.331.828 1.116 1.116 0 0 1-.828 1.33C20.84 8.189 14.452 12.182 9.898 17.816A32.472 32.472 0 0 0 2.71 38.162c0 5.62 1.464 11.15 4.23 16.014.31.533.117 1.213-.415 1.509a1.09 1.09 0 0 1-.547.148ZM64.595 55.138c-.178 0-.355-.045-.518-.133a1.114 1.114 0 0 1-.443-1.509 32.483 32.483 0 0 0 3.844-15.334c0-8.65-3.371-16.783-9.478-22.905-6.122-6.107-14.255-9.464-22.906-9.464a1.117 1.117 0 0 1-1.109-1.11c0-.605.503-1.108 1.11-1.108 9.241 0 17.936 3.593 24.472 10.13 6.536 6.535 10.13 15.23 10.13 24.472 0 5.708-1.42 11.386-4.111 16.384a1.161 1.161 0 0 1-.991.577Z" fill="#00C2FF"/>
<path d="M38.008 9.283c-.281 0-.562-.104-.784-.326L33.69 5.423a1.116 1.116 0 0 1 0-1.567L37.224.322a1.116 1.116 0 0 1 1.567 0 1.116 1.116 0 0 1 0 1.567l-2.735 2.736L38.79 7.39a1.116 1.116 0 0 1 0 1.567 1.097 1.097 0 0 1-.783.326Z" fill="#00C2FF"/>
<path d="M67.996 66.243H2.193a1.117 1.117 0 0 1-1.109-1.11c0-.605.503-1.108 1.11-1.108H68.01c.606 0 1.11.503 1.11 1.109a1.12 1.12 0 0 1-1.125 1.109Z" fill="#474747"/>
</svg>
